<?xml version="1.0" encoding="UTF-8"?>
<svg width="141px" height="70px" viewBox="0 0 141 70" version="1.1" xmlns="http://www.w3.org/2000/svg" xmlns:xlink="http://www.w3.org/1999/xlink">
    <!-- Generator: Sketch 51.1 (57501) - http://www.bohemiancoding.com/sketch -->
    <title>Logo Conte no flag</title>
    <desc>Created with Sketch.</desc>
    <defs>
        <polygon id="path-1" points="0.000307017544 0.217675439 140.320833 0.217675439 140.320833 14.7368421 0.000307017544 14.7368421"></polygon>
        <polygon id="path-3" points="0 69.6229825 140.32114 69.6229825 140.32114 0 0 0"></polygon>
    </defs>
    <g id="Polizza-Auto" stroke="none" stroke-width="1" fill="none" fill-rule="evenodd">
        <g id="-🖥--polizzaAuto-Scrolled-V3" transform="translate(-230.000000, -38.000000)">
            <g id="Logo-Conte-no-flag" transform="translate(230.000000, 38.000000)">
                <path d="M129.621088,49.4839211 C128.845561,49.4839211 128.14986,49.3605 127.540123,49.1062895 C126.926702,48.8569912 126.411526,48.5063772 125.993368,48.0581316 C125.574596,47.6080439 125.252228,47.0769035 125.033018,46.4702368 C124.811965,45.8586579 124.703281,45.1856754 124.703281,44.4451491 L124.703281,37.337693 L122.118193,37.337693 L122.118193,36.1378684 C122.118193,35.6325175 122.223807,35.2868158 122.431965,35.0854123 C122.645035,34.8858509 122.907228,34.7876053 123.228982,34.7876053 L124.703281,34.7876053 L124.703281,32.7189211 C124.703281,32.4769912 124.729684,32.2504123 124.780035,32.0269035 C124.829158,31.8101491 124.918807,31.6062895 125.049596,31.4294474 C125.181,31.2489211 125.370123,31.1095351 125.617579,31.0106754 C125.864421,30.9118158 126.205825,30.8577807 126.623368,30.8577807 L127.724947,30.8577807 L127.724947,34.7876053 L132.795649,34.7876053 L132.795649,36.4105 C132.795649,36.9133947 132.52486,37.337693 131.883807,37.337693 L127.724947,37.337693 L127.724947,44.3260263 C127.724947,45.0837456 127.906702,45.6738333 128.262842,46.0926053 C128.628193,46.5144474 129.158105,46.7232193 129.853807,46.7232193 C130.157754,46.7232193 130.42486,46.6968158 130.664947,46.6329561 C130.903807,46.5697105 131.118105,46.5040088 131.30907,46.421114 C131.501263,46.3431316 131.846351,46.2147982 132.013982,46.1466404 C132.591175,45.9243596 133.095298,46.2049737 133.250649,46.5107632 C133.40907,46.8288333 134.021877,48.0949737 134.021877,48.0949737 C134.021877,48.0949737 132.682053,48.888307 131.698982,49.1830439 C131.048719,49.378307 130.483807,49.4839211 129.621088,49.4839211" id="Fill-1" fill="#005388"></path>
                <path d="M19.3898158,49.395193 C17.4967456,49.395193 15.7406053,49.0531754 14.1238509,48.3703684 C12.5058684,47.6881754 11.1040263,46.7345789 9.91955263,45.5046667 C8.73385088,44.2827368 7.8085,42.8194912 7.13858772,41.1143158 C6.47051754,39.4128246 6.13464035,37.5621228 6.13464035,35.553 C6.13464035,33.6003684 6.47051754,31.7754561 7.13858772,30.075807 C7.8085,28.3737018 8.73385088,26.8957193 9.91955263,25.6437018 C11.1040263,24.3855439 12.5058684,23.4049298 14.1238509,22.6957193 C15.7406053,21.9815965 17.4967456,21.6279123 19.3898158,21.6279123 C20.8149912,21.6279123 22.1775351,21.7679123 23.4719211,22.0466842 C24.7675351,22.322386 26.8945526,23.0107193 27.8690263,23.4135263 C27.8149912,23.6075614 27.1579737,25.4214211 26.8546404,26.1932632 C26.5955175,26.855807 25.8918333,27.2217719 25.1899912,27.0522982 C24.9167456,26.9829123 23.5664825,26.6157193 23.1342018,26.4787895 C22.7025351,26.3387895 22.1971842,26.2141404 21.6101667,26.0968596 C21.0243772,25.9924737 20.3403421,25.9335263 19.5586754,25.9335263 C18.3588509,25.9335263 17.2462193,26.1637895 16.2140263,26.6249298 C15.1855175,27.0842281 14.2822719,27.7326491 13.5159561,28.5640526 C12.7490263,29.4040526 12.1497281,30.4178246 11.7180614,31.6010702 C11.2857807,32.787386 11.0684123,34.1044912 11.0684123,35.553 C11.0684123,37.0604561 11.2857807,38.4027368 11.7180614,39.5884386 C12.1497281,40.7704561 12.7490263,41.7750175 13.5159561,42.6008947 C14.2822719,43.4261579 15.1855175,44.0426491 16.2140263,44.460193 C17.2462193,44.8820351 18.3588509,45.0889649 19.5586754,45.0889649 C20.3403421,45.0889649 21.0151667,45.020807 21.5868333,44.9219474 C22.7547281,44.722386 24.8498158,44.0070351 25.1445526,43.9345789 C26.1036754,43.6938772 26.6108684,44.2317719 26.8368333,44.7794912 C27.0713947,45.3560702 27.8690263,47.6464211 27.8690263,47.6464211 C26.7005175,48.1542281 24.9093772,48.7344912 23.6592018,48.9985263 C22.402886,49.2625614 20.9820088,49.395193 19.3898158,49.395193" id="Fill-3" fill="#005388"></path>
                <path d="M55.1441579,49.2722632 L52.4976667,49.2722632 L52.4976667,28.6529649 L55.4364386,28.6529649 C56.5588947,28.6529649 56.9684561,29.0962982 56.9684561,30.3237544 L56.9684561,31.787614 C57.6690702,30.8143684 58.5802982,30.0112105 59.7113509,29.3805965 C60.8374912,28.7555088 62.1165263,28.444807 63.5386316,28.444807 C65.7976667,28.444807 67.5814386,29.1834912 68.8881053,30.6590175 C70.2002982,32.1388421 70.8560877,34.2584912 70.8560877,37.0179649 L70.8560877,47.2496316 C70.8560877,48.3505965 70.6356491,49.2722632 69.1607368,49.2722632 L66.2981053,49.2722632 L66.2981053,37.5184035 C66.2981053,35.7327895 65.9063509,34.4218246 65.1271404,33.5848947 C64.3467018,32.7534912 63.2463509,32.3322632 61.8224035,32.3322632 C60.9271404,32.3322632 59.6487193,32.6122632 58.8952982,33.3220877 C57.7851228,34.3536667 57.0501228,36.2234035 57.0501228,38.699807 L57.0501228,47.2625263 C57.0501228,48.4304211 56.6669649,49.2722632 55.1441579,49.2722632" id="Fill-5" fill="#005388"></path>
                <path d="M39.1900526,28.5149912 C33.3966316,28.5149912 28.7047895,33.2099035 28.7047895,39.0039386 C28.7047895,44.7961316 33.3966316,49.4910439 39.1900526,49.4910439 C44.9804035,49.4910439 49.6765439,44.7961316 49.6765439,39.0039386 C49.6765439,33.2099035 44.9804035,28.5149912 39.1900526,28.5149912 M39.1900526,45.2345526 C35.7453158,45.2345526 32.9582105,42.4468333 32.9582105,39.0039386 C32.9582105,35.562886 35.7453158,32.7708684 39.1900526,32.7708684 C42.6329474,32.7708684 45.4231228,35.562886 45.4231228,39.0039386 C45.4231228,42.4468333 42.6329474,45.2345526 39.1900526,45.2345526" id="Fill-7" fill="#005388"></path>
                <path d="M80.9462193,49.2722632 L78.6485,49.2722632 L78.6485,26.0967368 L70.1140263,26.0967368 L70.1140263,23.509807 C70.1140263,22.424193 70.3792895,21.8341053 71.8253421,21.8341053 L91.7814825,21.8341053 L91.7814825,24.6420877 C91.7814825,25.6061228 91.1398158,26.0967368 90.1960439,26.0967368 L83.3385,26.0967368 L83.3372719,47.3048947 C83.3372719,48.8940175 82.3849035,49.2722632 80.9462193,49.2722632" id="Fill-9" fill="#D2082A"></path>
                <path d="M99.5993158,49.4791316 C97.8996667,49.4791316 96.3793158,49.2126404 95.0431754,48.6851842 C93.7045789,48.1583421 92.5741404,47.4196579 91.6524737,46.4691316 C90.7338772,45.5241316 90.030807,44.3979912 89.5420351,43.1036053 C89.0538772,41.8055351 88.8107193,40.4067632 88.8107193,38.9023772 C88.8107193,37.3912368 89.0594035,36.0065877 89.5604561,34.7367632 C90.065193,33.4724649 90.7565965,32.3678158 91.6334386,31.4307982 C92.5127368,30.5017632 93.5492281,29.7673772 94.7508947,29.2399211 C95.945193,28.7075526 97.2438772,28.4447456 98.6383509,28.4447456 C100.196772,28.4447456 101.580193,28.7278158 102.780632,29.2976404 C103.979842,29.8717632 104.977649,30.6337807 105.770982,31.5787807 C106.563088,32.5256228 107.164228,33.6007982 107.568877,34.8024649 C107.971684,36.0010614 108.174316,37.2272895 108.174316,38.4817632 C108.174316,39.1805351 108.102474,39.8762368 107.961246,40.5743947 L93.4522105,40.5743947 C93.6450175,42.1917632 94.2799298,43.4259737 95.3544912,44.2751842 C96.4315088,45.1213246 97.8444035,45.5468509 99.5993158,45.5468509 C100.353351,45.5468509 101.011596,45.4940439 101.564842,45.3835175 C102.124228,45.2705351 102.627737,45.1391316 103.075982,44.9831667 C103.514404,44.8339561 104.740018,44.4194825 105.368789,44.4194825 C105.875368,44.4194825 106.52686,44.6994825 106.744228,45.217114 C106.960982,45.7507105 107.61186,47.4313246 107.644404,47.5160614 C106.445807,48.1964123 105.120105,48.6078158 103.863789,48.9529035 C102.611158,49.3029035 101.193351,49.4791316 99.5993158,49.4791316 Z M103.905544,37.3089561 C103.765544,35.8045702 103.258351,34.5445702 102.382737,33.5222018 C101.502211,32.5053596 100.256333,31.9993947 98.6383509,31.9993947 C97.1051053,31.9993947 95.8862456,32.4887807 94.9787018,33.4632544 C94.0711579,34.4389561 93.5492281,35.7216754 93.408614,37.3089561 L103.905544,37.3089561 Z" id="Fill-11" fill="#D2082A"></path>
                <path d="M119.103956,31.9155789 C118.641588,31.9155789 118.246763,31.7467193 117.91457,31.4188246 C117.581763,31.0866316 117.41536,30.6887368 117.41536,30.2269825 C117.41536,29.7486491 117.581763,29.3397018 117.91457,29.011807 C118.246763,28.6753158 118.641588,28.5119825 119.103956,28.5119825 C119.583518,28.5119825 119.988167,28.6753158 120.321588,29.011807 C120.649482,29.3397018 120.818342,29.7486491 120.818342,30.2269825 C120.818342,30.6887368 120.649482,31.0866316 120.321588,31.4188246 C119.988167,31.7467193 119.583518,31.9155789 119.103956,31.9155789 M119.363079,49.4536491 L117.597728,49.4536491 L117.597728,35.9897018 C117.597728,35.1343509 118.179219,34.6689123 118.927728,34.6689123 L120.707202,34.6689123 L120.705974,48.2139123 C120.705974,48.8199649 120.336325,49.4536491 119.363079,49.4536491" id="Fill-13" fill="#005388"></path>
                <path d="M114.749342,47.5596579 C114.749342,48.6059737 113.905658,49.4527281 112.85443,49.4527281 C111.812412,49.4527281 110.963202,48.6059737 110.963202,47.5596579 C110.963202,46.5145702 111.812412,45.6690439 112.85443,45.6690439 C113.905658,45.6690439 114.749342,46.5145702 114.749342,47.5596579" id="Fill-15" fill="#005388"></path>
                <path d="M139.14643,17.1091667 C127.604412,10.4616228 105.851605,0.829254386 74.1520439,0.0586403509 L74.1520439,0.0567982456 C74.0771316,0.0543421053 73.9991491,0.0543421053 73.926693,0.0518859649 C73.488886,0.0451315789 73.0541491,0.031622807 72.6095877,0.024254386 C71.7966053,0.0113596491 70.9811667,0.00521929825 70.1552895,0.000307017544 L70.0687105,0.000307017544 C36.1500263,0.000307017544 13.0402018,10.1797807 1.00818421,17.1091667 C-0.790938596,18.1493421 0.0981842105,19.2398684 1.49634211,18.6252193 C14.5556404,12.8588158 37.6906404,6.12346491 70.0687105,6.12346491 C71.442307,6.12346491 72.8023947,6.13820175 74.1520439,6.1670614 C104.402482,6.69820175 126.147921,13.1025877 138.655816,18.6252193 C140.05643,19.2398684 140.947395,18.1493421 139.14643,17.1091667" id="Fill-17" fill="#005388"></path>
                <g id="Group-21" transform="translate(0.000000, 54.886140)">
                    <mask id="mask-2" fill="white">
                        <use xlink:href="#path-1"></use>
                    </mask>
                    <g id="Clip-20"></g>
                    <path d="M0.000307017544,0.217675439 L0.000307017544,9.62653509 C0.000307017544,12.6408333 2.43925439,14.7371491 5.44311404,14.7371491 L134.877412,14.7371491 C137.8825,14.7371491 140.320833,12.6408333 140.320833,9.62653509 L140.320833,0.217675439 L0.000307017544,0.217675439 Z" id="Fill-19" fill="#D2082A" mask="url(#mask-2)"></path>
                </g>
                <path d="M11.3239737,58.2483509 L14.4334474,66.5593158 L12.5360789,66.5593158 L11.906693,64.708614 L8.80090351,64.708614 L8.14572807,66.5593158 L6.30792105,66.5593158 L9.4517807,58.2483509 L11.3239737,58.2483509 Z M11.4295877,63.3472982 L10.3832719,60.297386 L10.3587105,60.297386 L9.2767807,63.3472982 L11.4295877,63.3472982 Z" id="Fill-22" fill="#FEFEFE"></path>
                <path d="M16.2470614,64.5097895 C16.3496053,64.7038246 16.4822368,64.8610175 16.6480263,64.9832105 C16.8162719,65.1029474 17.0133772,65.1932105 17.2350439,65.2472456 C17.4628509,65.3104912 17.6937281,65.3375088 17.9344298,65.3375088 C18.0977632,65.3375088 18.2721491,65.324 18.4600439,65.2957544 C18.6460965,65.2699649 18.8198684,65.2171579 18.9819737,65.1404035 C19.1465351,65.0630351 19.2828509,64.9549649 19.3909211,64.8204912 C19.5002193,64.6841754 19.5536404,64.5097895 19.5536404,64.3004035 C19.5536404,64.0762807 19.4817982,63.8939123 19.338114,63.7545263 C19.1950439,63.6139123 19.0083772,63.4978596 18.7744298,63.4032982 C18.5404825,63.311807 18.2770614,63.2319825 17.9835526,63.1607544 C17.6875877,63.0919825 17.3879386,63.013386 17.0882895,62.9292632 C16.7745175,62.8512807 16.4711842,62.7561053 16.1807456,62.6431228 C15.8823246,62.5319825 15.6189035,62.384 15.3874123,62.2059298 C15.1540789,62.0272456 14.9649561,61.8080351 14.8237281,61.5378596 C14.6800439,61.2689123 14.6063596,60.9447018 14.6063596,60.564614 C14.6063596,60.1390877 14.6984649,59.7669825 14.8802193,59.4544386 C15.0632018,59.1406667 15.3026754,58.8790877 15.5955702,58.6678596 C15.890307,58.4584737 16.2255702,58.3018947 16.5964474,58.2030351 C16.9716228,58.1004912 17.3406579,58.0501404 17.7152193,58.0501404 C18.1499561,58.0501404 18.568114,58.0986491 18.9647807,58.1968947 C19.3657456,58.2951404 19.7188158,58.4498772 20.0332018,58.6678596 C20.3414474,58.8882982 20.5876754,59.163386 20.7694298,59.5011053 C20.9530263,59.8369825 21.0445175,60.2477719 21.0445175,60.7297895 L19.2767105,60.7297895 C19.2595175,60.4811053 19.2060965,60.2729474 19.1170614,60.109614 C19.0298684,59.9475088 18.9101316,59.8216316 18.7609211,59.7258421 C18.6135526,59.6325088 18.444693,59.5674211 18.2561842,59.5287368 C18.0670614,59.4918947 17.8576754,59.4691754 17.6335526,59.4691754 C17.4874123,59.4691754 17.3375877,59.4851404 17.1914474,59.5164561 C17.0459211,59.5477719 16.9102193,59.6005789 16.7910965,59.6791754 C16.6689035,59.759614 16.5712719,59.8560175 16.4920614,59.9708421 C16.4140789,60.0887368 16.3772368,60.2336491 16.3772368,60.4129474 C16.3772368,60.5750526 16.4060965,60.7064561 16.4675,60.8077719 C16.5319737,60.9127719 16.6535526,61.0048772 16.8365351,61.089614 C17.0189035,61.1749649 17.2688158,61.2603158 17.5917982,61.3456667 C17.9147807,61.4297895 18.3353947,61.5403158 18.8567105,61.6717193 C19.0108333,61.7024211 19.2245175,61.7595263 19.5002193,61.8393509 C19.7777632,61.9222456 20.0503947,62.051807 20.3236404,62.2298772 C20.5932018,62.4067193 20.8296053,62.6480351 21.0254825,62.9458421 C21.2250439,63.2442632 21.3251316,63.626807 21.3251316,64.0897895 C21.3251316,64.4704912 21.2514474,64.8254035 21.1022368,65.1514561 C20.9530263,65.4762807 20.738114,65.7593509 20.4439912,65.9969825 C20.1517105,66.2309298 19.793114,66.4182105 19.3626754,66.5502281 C18.9334649,66.6816316 18.4330263,66.7454912 17.866886,66.7454912 C17.4063596,66.7454912 16.9654825,66.6920702 16.5356579,66.5754035 C16.1039912,66.4673333 15.7226754,66.2886491 15.3917105,66.0479474 C15.0632018,65.8072456 14.8003947,65.5002281 14.6063596,65.1262807 C14.4123246,64.7560175 14.3202193,64.3151404 14.3282018,63.8005789 L16.0972368,63.8005789 C16.0972368,64.0830351 16.1475877,64.3169825 16.2470614,64.5097895" id="Fill-24" fill="#FEFEFE"></path>
                <path d="M23.6862193,64.5097895 C23.7869211,64.7038246 23.9201667,64.8610175 24.0871842,64.9832105 C24.2548158,65.1029474 24.4519211,65.1932105 24.6760439,65.2472456 C24.9013947,65.3104912 25.132886,65.3375088 25.3742018,65.3375088 C25.5369211,65.3375088 25.711307,65.324 25.8985877,65.2957544 C26.0858684,65.2699649 26.2590263,65.2171579 26.4205175,65.1404035 C26.5850789,65.0630351 26.7201667,64.9549649 26.8257807,64.8204912 C26.936307,64.6841754 26.9897281,64.5097895 26.9897281,64.3004035 C26.9897281,64.0762807 26.9185,63.8939123 26.7766579,63.7545263 C26.6329737,63.6139123 26.4469211,63.4978596 26.2135877,63.4032982 C25.9796404,63.311807 25.7156053,63.2319825 25.4220965,63.1607544 C25.1255175,63.0919825 24.8270965,63.013386 24.5262193,62.9292632 C24.2149035,62.8512807 23.9097281,62.7561053 23.6156053,62.6431228 C23.3196404,62.5319825 23.0568333,62.384 22.8259561,62.2059298 C22.5920088,62.0272456 22.4035,61.8080351 22.2622719,61.5378596 C22.1155175,61.2689123 22.0430614,60.9447018 22.0430614,60.564614 C22.0430614,60.1390877 22.1363947,59.7669825 22.3187632,59.4544386 C22.4992895,59.1406667 22.7387632,58.8790877 23.0353421,58.6678596 C23.3288509,58.4584737 23.6616579,58.3018947 24.0349912,58.2030351 C24.4095526,58.1004912 24.7798158,58.0501404 25.1525351,58.0501404 C25.5885,58.0501404 26.0048158,58.0986491 26.4045526,58.1968947 C26.8018333,58.2951404 27.1592018,58.4498772 27.4692895,58.6678596 C27.7787632,58.8882982 28.0231491,59.163386 28.2073596,59.5011053 C28.3921842,59.8369825 28.4830614,60.2477719 28.4830614,60.7297895 L26.7121842,60.7297895 C26.6968333,60.4811053 26.6446404,60.2729474 26.5556053,60.109614 C26.4665702,59.9475088 26.3486754,59.8216316 26.200693,59.7258421 C26.0520965,59.6325088 25.8820088,59.5674211 25.6947281,59.5287368 C25.5025351,59.4918947 25.2968333,59.4691754 25.0733246,59.4691754 C24.9265702,59.4691754 24.7755175,59.4851404 24.6299912,59.5164561 C24.4813947,59.5477719 24.3450789,59.6005789 24.2290263,59.6791754 C24.1086754,59.759614 24.0067456,59.8560175 23.9306053,59.9708421 C23.8526228,60.0887368 23.8151667,60.2336491 23.8151667,60.4129474 C23.8151667,60.5750526 23.8446404,60.7064561 23.9066579,60.8077719 C23.9692895,60.9127719 24.0920965,61.0048772 24.2744649,61.089614 C24.4574474,61.1749649 24.7079737,61.2603158 25.0303421,61.3456667 C25.3539386,61.4297895 25.7739386,61.5403158 26.2952544,61.6717193 C26.4481491,61.7024211 26.6618333,61.7595263 26.9387632,61.8393509 C27.2150789,61.9222456 27.4877105,62.051807 27.7609561,62.2298772 C28.0329737,62.4067193 28.2687632,62.6480351 28.4640263,62.9458421 C28.6635877,63.2442632 28.7636754,63.626807 28.7636754,64.0897895 C28.7636754,64.4704912 28.6912193,64.8254035 28.5395526,65.1514561 C28.3921842,65.4762807 28.1760439,65.7593509 27.8825351,65.9969825 C27.5896404,66.2309298 27.232886,66.4182105 26.7993772,66.5502281 C26.3695526,66.6816316 25.8715702,66.7454912 25.3048158,66.7454912 C24.8455175,66.7454912 24.4046404,66.6920702 23.9729737,66.5754035 C23.5394649,66.4673333 23.1606053,66.2886491 22.8302544,66.0479474 C22.4992895,65.8072456 22.2383246,65.5002281 22.0430614,65.1262807 C21.8502544,64.7560175 21.7581491,64.3151404 21.7642895,63.8005789 L23.5363947,63.8005789 C23.5363947,64.0830351 23.5861316,64.3169825 23.6862193,64.5097895" id="Fill-26" fill="#FEFEFE"></path>
                <mask id="mask-4" fill="white">
                    <use xlink:href="#path-3"></use>
                </mask>
                <g id="Clip-29"></g>
                <polygon id="Fill-28" fill="#FEFEFE" mask="url(#mask-4)" points="29.54 66.5595614 31.3679825 66.5595614 31.3679825 58.2504386 29.54 58.2504386"></polygon>
                <path d="M38.0057632,60.4675965 C37.8946228,60.2919825 37.7613772,60.1390877 37.5986579,60.0070702 C37.4334825,59.8762807 37.2486579,59.7718947 37.0429561,59.6963684 C36.8378684,59.6251404 36.6205,59.5858421 36.3976053,59.5858421 C35.9886579,59.5858421 35.6368158,59.6656667 35.3488333,59.8265439 C35.0608509,59.9849649 34.8293596,60.1980351 34.6512895,60.4675965 C34.4732193,60.7328596 34.3436579,61.0374211 34.2613772,61.3782105 C34.1784825,61.7202281 34.1391842,62.0732982 34.1391842,62.4374211 C34.1391842,62.7874211 34.1784825,63.1282105 34.2613772,63.4585614 C34.3436579,63.7882982 34.4732193,64.0842632 34.6512895,64.3464561 C34.8293596,64.6117193 35.0608509,64.8235614 35.3488333,64.9825965 C35.6368158,65.1404035 35.9886579,65.2202281 36.3976053,65.2202281 C36.9545351,65.2202281 37.3929561,65.0495263 37.7073421,64.7093509 C38.021114,64.3691754 38.2157632,63.9154035 38.2851491,63.3578596 L40.0541842,63.3578596 C40.0081316,63.8779474 39.8865526,64.3464561 39.6906754,64.7670702 C39.5009386,65.1876842 39.2436579,65.5444386 38.9237456,65.8391754 C38.6026053,66.1339123 38.2305,66.3586491 37.8055877,66.5115439 C37.3788333,66.6681228 36.9097105,66.7454912 36.3976053,66.7454912 C35.7602368,66.7454912 35.1885702,66.6349649 34.6819912,66.4157544 C34.1717281,66.1940877 33.7455877,65.8870702 33.3937456,65.5002281 C33.0455877,65.1121579 32.7790965,64.6571579 32.5899737,64.133386 C32.4020789,63.6077719 32.3112018,63.0465439 32.3112018,62.4374211 C32.3112018,61.8178596 32.4020789,61.2418947 32.5899737,60.7095263 C32.7790965,60.1777719 33.0455877,59.7160175 33.3937456,59.321807 C33.7455877,58.9257544 34.1717281,58.6125965 34.6819912,58.3872456 C35.1885702,58.1631228 35.7602368,58.0513684 36.3976053,58.0513684 C36.8532193,58.0513684 37.2842719,58.1158421 37.6944474,58.2478596 C38.1046228,58.3792632 38.4687456,58.5732982 38.7917281,58.8250526 C39.1116404,59.0786491 39.3781316,59.3899649 39.5856754,59.7626842 C39.7944474,60.1354035 39.9270789,60.5597018 39.9847982,61.0435614 L38.2157632,61.0435614 C38.1838333,60.8317193 38.1138333,60.6401404 38.0057632,60.4675965" id="Fill-30" fill="#FEFEFE" mask="url(#mask-4)"></path>
                <path d="M47.1077281,65.9267982 C46.4795702,66.4720614 45.6082544,66.7459211 44.499307,66.7459211 C43.3756228,66.7459211 42.503693,66.4745175 41.8853596,65.9310965 C41.2670263,65.3876754 40.9606228,64.5489035 40.9606228,63.4184649 L40.9606228,58.2476754 L42.7873772,58.2476754 L42.7873772,63.4184649 C42.7873772,63.6419737 42.8070263,63.8636404 42.8475526,64.0834649 C42.8856228,64.2989912 42.9660614,64.4893421 43.0931667,64.6588158 C43.2135175,64.8215351 43.3854474,64.959693 43.6095702,65.064693 C43.8312368,65.1709211 44.1302719,65.2212719 44.499307,65.2212719 C45.1520263,65.2212719 45.6015,65.0763596 45.8495702,64.7840789 C46.0970263,64.4967105 46.2222895,64.0374123 46.2222895,63.4184649 L46.2222895,58.2476754 L48.0496579,58.2476754 L48.0496579,63.4184649 C48.0496579,64.5409211 47.7352719,65.3778509 47.1077281,65.9267982" id="Fill-31" fill="#FEFEFE" mask="url(#mask-4)"></path>
                <path d="M53.7985614,58.2471228 C54.1725088,58.2471228 54.509,58.3115965 54.8086491,58.4288772 C55.104,58.5492281 55.3606667,58.7113333 55.5755789,58.9256316 C55.7886491,59.1356316 55.9525965,59.3781754 56.066193,59.6514211 C56.1773333,59.9265088 56.2350526,60.2249298 56.2350526,60.5417719 C56.2350526,61.0311579 56.1300526,61.4560702 55.9255789,61.8109825 C55.7186491,62.1683509 55.384614,62.4372982 54.9154912,62.625193 L54.9154912,62.6497544 C55.1463684,62.7105439 55.3305789,62.8051053 55.4791754,62.9346667 C55.6240877,63.063 55.7444386,63.2122105 55.8359298,63.3872105 C55.9311053,63.5615965 55.9980351,63.7531754 56.0397895,63.9656316 C56.0852281,64.1744035 56.1116316,64.3844035 56.1275965,64.5937895 C56.136193,64.725807 56.1447895,64.8799298 56.1515439,65.058 C56.1589123,65.2348421 56.1742632,65.4208947 56.1926842,65.6051053 C56.2111053,65.793 56.241807,65.968 56.2841754,66.1356316 C56.3277719,66.300193 56.3910175,66.4426491 56.4794386,66.5593158 L54.6508421,66.5593158 C54.5519825,66.2958947 54.4881228,65.9833509 54.4666316,65.6155439 C54.4432982,65.2514211 54.403386,64.9026491 54.3585614,64.5692281 C54.2965439,64.1351053 54.1663684,63.8145789 53.9649649,63.6125614 C53.7617193,63.4142281 53.4319825,63.3116842 52.9751404,63.3116842 L51.1471579,63.3116842 L51.1471579,66.5593158 L49.3185614,66.5593158 L49.3185614,58.2471228 L53.7985614,58.2471228 Z M53.1489123,62.0093158 C53.5701404,62.0093158 53.879614,61.9172105 54.0926842,61.7287018 C54.3032982,61.540807 54.403386,61.2380877 54.403386,60.8217719 C54.403386,60.4189649 54.3032982,60.1248421 54.0926842,59.9437018 C53.879614,59.7582632 53.5701404,59.668 53.1489123,59.668 L51.1471579,59.668 L51.1471579,62.0093158 L53.1489123,62.0093158 Z" id="Fill-32" fill="#FEFEFE" mask="url(#mask-4)"></path>
                <path d="M61.8667368,58.2483509 L64.9749825,66.5593158 L63.077614,66.5593158 L62.4512982,64.708614 L59.3442807,64.708614 L58.6878772,66.5593158 L56.8506842,66.5593158 L59.9920877,58.2483509 L61.8667368,58.2483509 Z M61.974193,63.3472982 L60.9223509,60.297386 L60.9014737,60.297386 L59.8158596,63.3472982 L61.974193,63.3472982 Z" id="Fill-33" fill="#FEFEFE" mask="url(#mask-4)"></path>
                <polygon id="Fill-34" fill="#FEFEFE" mask="url(#mask-4)" points="69.8522018 59.7852193 65.7430789 59.7852193 65.7430789 58.2476754 72.2868509 58.2476754 72.2868509 59.693114 67.8265 65.0235526 72.4004474 65.0235526 72.4004474 66.5592544 65.3924649 66.5592544 65.3924649 65.1193421"></polygon>
                <polygon id="Fill-35" fill="#FEFEFE" mask="url(#mask-4)" points="73.3557018 66.5595614 75.1836842 66.5595614 75.1836842 58.2504386 73.3557018 58.2504386"></polygon>
                <path d="M76.3583333,60.7098947 C76.545,60.1781404 76.8114912,59.7145439 77.1614912,59.3215614 C77.5127193,58.9236667 77.9376316,58.6135789 78.4472807,58.387614 C78.9557018,58.1628772 79.5273684,58.0517368 80.1647368,58.0517368 C80.8113158,58.0517368 81.3829825,58.1628772 81.8901754,58.387614 C82.390614,58.6135789 82.8192105,58.9236667 83.1685965,59.3215614 C83.5161404,59.7145439 83.7850877,60.1781404 83.9717544,60.7098947 C84.1553509,61.2428772 84.2511404,61.8200702 84.2511404,62.4371754 C84.2511404,63.0456842 84.1553509,63.6099825 83.9717544,64.1337544 C83.7850877,64.6575263 83.5161404,65.1125263 83.1685965,65.5018246 C82.8192105,65.8886667 82.390614,66.1944561 81.8901754,66.4155088 C81.3829825,66.6353333 80.8113158,66.7452456 80.1647368,66.7452456 C79.5273684,66.7452456 78.9557018,66.6353333 78.4472807,66.4155088 C77.9376316,66.1944561 77.5127193,65.8886667 77.1614912,65.5018246 C76.8114912,65.1125263 76.545,64.6575263 76.3583333,64.1337544 C76.1722807,63.6099825 76.0801754,63.0456842 76.0801754,62.4371754 C76.0801754,61.8200702 76.1722807,61.2428772 76.3583333,60.7098947 M78.0291228,63.4589298 C78.1114035,63.7886667 78.242807,64.0840175 78.417807,64.3468246 C78.5971053,64.6114737 78.8304386,64.8245439 79.1159649,64.9823509 C79.4033333,65.141386 79.7564035,65.2212105 80.1647368,65.2212105 C80.5761404,65.2212105 80.9255263,65.141386 81.2122807,64.9823509 C81.4984211,64.8245439 81.7335965,64.6114737 81.9116667,64.3468246 C82.092193,64.0840175 82.2192982,63.7886667 82.3009649,63.4589298 C82.3814035,63.1285789 82.424386,62.7865614 82.424386,62.4371754 C82.424386,62.0736667 82.3814035,61.7199825 82.3009649,61.3785789 C82.2192982,61.0377895 82.092193,60.732614 81.9116667,60.4685789 C81.7335965,60.1984035 81.4984211,59.9847193 81.2122807,59.8269123 C80.9255263,59.6666491 80.5761404,59.5855965 80.1647368,59.5855965 C79.7564035,59.5855965 79.4033333,59.6666491 79.1159649,59.8269123 C78.8304386,59.9847193 78.5971053,60.1984035 78.417807,60.4685789 C78.242807,60.732614 78.1114035,61.0377895 78.0291228,61.3785789 C77.9468421,61.7199825 77.9069298,62.0736667 77.9069298,62.4371754 C77.9069298,62.7865614 77.9468421,63.1285789 78.0291228,63.4589298" id="Fill-36" fill="#FEFEFE" mask="url(#mask-4)"></path>
                <polygon id="Fill-37" fill="#FEFEFE" mask="url(#mask-4)" points="86.7309825 58.2477368 90.2008947 63.8237895 90.2242281 63.8237895 90.2242281 58.2477368 91.9355439 58.2477368 91.9355439 66.5580877 90.1087895 66.5580877 86.6480877 60.997386 86.6235263 60.997386 86.6235263 66.5580877 84.9128246 66.5580877 84.9128246 58.2477368"></polygon>
                <polygon id="Fill-38" fill="#FEFEFE" mask="url(#mask-4)" points="99.2911316 58.2477368 99.2911316 59.7858947 94.9026228 59.7858947 94.9026228 61.5641404 98.9282368 61.5641404 98.9282368 62.9874737 94.9026228 62.9874737 94.9026228 65.0248421 99.3850789 65.0248421 99.3850789 66.5580877 93.0770965 66.5580877 93.0770965 58.2477368"></polygon>
                <path d="M107.392281,58.2483509 L110.499912,66.5593158 L108.602544,66.5593158 L107.973772,64.708614 L104.86614,64.708614 L104.212807,66.5593158 L102.373772,66.5593158 L105.51886,58.2483509 L107.392281,58.2483509 Z M107.495439,63.3472982 L106.447895,60.297386 L106.425789,60.297386 L105.342632,63.3472982 L107.495439,63.3472982 Z" id="Fill-39" fill="#FEFEFE" mask="url(#mask-4)"></path>
                <path d="M116.982404,65.9267982 C116.356088,66.4720614 115.484158,66.7459211 114.376439,66.7459211 C113.25214,66.7459211 112.380211,66.4745175 111.763719,65.9310965 C111.143544,65.3876754 110.836526,64.5489035 110.836526,63.4184649 L110.836526,58.2476754 L112.663895,58.2476754 L112.663895,63.4184649 C112.663895,63.6419737 112.685386,63.8636404 112.72407,64.0834649 C112.762754,64.2989912 112.842579,64.4893421 112.969684,64.6588158 C113.093719,64.8215351 113.261351,64.959693 113.486088,65.064693 C113.707754,65.1709211 114.006175,65.2212719 114.376439,65.2212719 C115.028544,65.2212719 115.478018,65.0763596 115.726088,64.7840789 C115.973544,64.4967105 116.100035,64.0374123 116.100035,63.4184649 L116.100035,58.2476754 L117.926789,58.2476754 L117.926789,63.4184649 C117.926789,64.5409211 117.611789,65.3778509 116.982404,65.9267982" id="Fill-40" fill="#FEFEFE" mask="url(#mask-4)"></path>
                <polygon id="Fill-41" fill="#FEFEFE" mask="url(#mask-4)" points="118.729763 59.7852193 118.729763 58.2476754 125.540026 58.2476754 125.540026 59.7852193 123.048886 59.7852193 123.048886 66.5592544 121.220904 66.5592544 121.220904 59.7852193"></polygon>
                <path d="M125.945842,60.7098947 C126.132509,60.1781404 126.401456,59.7145439 126.750842,59.3215614 C127.097772,58.9236667 127.527596,58.6135789 128.034789,58.387614 C128.545053,58.1628772 129.116105,58.0517368 129.753474,58.0517368 C130.399439,58.0517368 130.971105,58.1628772 131.474,58.387614 C131.979965,58.6135789 132.407333,58.9236667 132.754263,59.3215614 C133.103649,59.7145439 133.375053,60.1781404 133.559877,60.7098947 C133.744088,61.2428772 133.838649,61.8200702 133.838649,62.4371754 C133.838649,63.0456842 133.744088,63.6099825 133.559877,64.1337544 C133.375053,64.6575263 133.103649,65.1125263 132.754263,65.5018246 C132.407333,65.8886667 131.979965,66.1944561 131.474,66.4155088 C130.971105,66.6353333 130.399439,66.7452456 129.753474,66.7452456 C129.116105,66.7452456 128.545053,66.6353333 128.034789,66.4155088 C127.527596,66.1944561 127.097772,65.8886667 126.750842,65.5018246 C126.401456,65.1125263 126.132509,64.6575263 125.945842,64.1337544 C125.761018,63.6099825 125.667684,63.0456842 125.667684,62.4371754 C125.667684,61.8200702 125.761018,61.2428772 125.945842,60.7098947 M127.617246,63.4589298 C127.698298,63.7886667 127.83093,64.0840175 128.00593,64.3468246 C128.185228,64.6114737 128.419175,64.8245439 128.704702,64.9823509 C128.992684,65.141386 129.339614,65.2212105 129.753474,65.2212105 C130.164877,65.2212105 130.512421,65.141386 130.799789,64.9823509 C131.088386,64.8245439 131.321105,64.6114737 131.497947,64.3468246 C131.678474,64.0840175 131.807421,63.7886667 131.888474,63.4589298 C131.97014,63.1285789 132.013123,62.7865614 132.013123,62.4371754 C132.013123,62.0736667 131.97014,61.7199825 131.888474,61.3785789 C131.807421,61.0377895 131.678474,60.732614 131.497947,60.4685789 C131.321105,60.1984035 131.088386,59.9847193 130.799789,59.8269123 C130.512421,59.6666491 130.164877,59.5855965 129.753474,59.5855965 C129.339614,59.5855965 128.992684,59.6666491 128.704702,59.8269123 C128.419175,59.9847193 128.185228,60.1984035 128.00593,60.4685789 C127.83093,60.732614 127.698298,61.0377895 127.617246,61.3785789 C127.534965,61.7199825 127.493211,62.0736667 127.493211,62.4371754 C127.493211,62.7865614 127.534965,63.1285789 127.617246,63.4589298" id="Fill-42" fill="#FEFEFE" mask="url(#mask-4)"></path>
            </g>
        </g>
    </g>
</svg>